<svg id="flat" height="512" viewBox="0 0 512 512" width="512" xmlns="http://www.w3.org/2000/svg"><path d="m152 320v-32a32 32 0 0 0 -32-32h-64a32 32 0 0 0 -32 32v32z" fill="#e35430"/><path d="m256 289.14286-54.94353 15.69814a64 64 0 0 0 -37.98541 29.78464l-19.07106 33.37436-48 32v32h56l32-32v88h144v-88l32 32h56v-32l-48-32-19.07106-33.37435a64 64 0 0 0 -37.98541-29.78465z" fill="#548aff"/><path d="m280 296-16 40 16 80-24 24-24-24 16-80-16-40 24-6.857z" fill="#ef5e3b"/><path d="m264 344h-16a8 8 0 0 1 0-16h16a8 8 0 0 1 0 16z" fill="#d14521"/><path d="m216 224h80a0 0 0 0 1 0 0v40a40 40 0 0 1 -40 40 40 40 0 0 1 -40-40v-40a0 0 0 0 1 0 0z" fill="#ffceb6"/><path d="m216 224v-12.46788a27.53212 27.53212 0 0 1 27.53212-27.53212 27.53194 27.53194 0 0 1 8.70642 1.41286l20.99305 6.99768a33.29818 33.29818 0 0 1 22.76841 31.58946z" fill="#b1712c"/><path d="m96 400-16-24h-16v16h-40v16l24 24h48z" fill="#ffceb6"/><path d="m416 400 16-24h16v16h40v16l-24 24h-48z" fill="#ffceb6"/><path d="m88 280a32 32 0 0 1 32 32v40a0 0 0 0 1 0 0h-64a0 0 0 0 1 0 0v-40a32 32 0 0 1 32-32z" fill="#ef5e3b"/><circle cx="88" cy="320" fill="#d14521" r="8"/><rect fill="#718799" height="128" rx="16" width="80" x="400" y="216"/><path d="m424 216 8 8h16l8-8z" fill="#62798c"/><path d="m352 232-32-64 32-16 16 32v40z" fill="#ffa100"/><path d="m306.111 109.167h35.777v53.666h-35.777z" fill="#ffb401" transform="matrix(.894 -.447 .447 .894 -26.615 159.255)"/><path d="m352 152 112-32-56-96-80 80z" fill="#ffc431"/><path d="m296 120-18.917 26.166 10.917 21.834h32z" fill="#ffa100"/><path d="m184 102.63v105.37a15.99555 15.99555 0 0 1 -16 16h-96a15.99555 15.99555 0 0 1 -16-16v-136a15.99552 15.99552 0 0 1 16-16h65.37012a16.14443 16.14443 0 0 1 11.31982 4.69l30.62012 30.62a16.14437 16.14437 0 0 1 4.68994 11.32z" fill="#548aff"/><path d="m182.55005 96h-38.55005v-38.55a15.82323 15.82323 0 0 1 4.68994 3.24l30.62012 30.62a15.82761 15.82761 0 0 1 3.23999 4.69z" fill="#7dafff"/><g fill="#4976f2"><path d="m80 184h80v16h-80z"/><path d="m112 152h48v16h-48z"/><path d="m80 152h16v16h-16z"/><path d="m136 120h24v16h-24z"/><path d="m80 120h40v16h-40z"/><path d="m80 88h40v16h-40z"/></g><path d="m422.56 48.96 5.11036-3.40691a23.29739 23.29739 0 0 1 32.90041 7.39819 23.29737 23.29737 0 0 1 -7.05428 31.371l-7.43649 4.95772z" fill="#ffb401"/></svg>