<svg xmlns="http://www.w3.org/2000/svg" width="18" height="18" viewBox="0 0 18 18">
    <g fill="none" fill-rule="evenodd">
        <path fill="#57A4FF" fill-rule="nonzero" d="M16.795 4.5l-2.28-1.014L13.5 1.205l-2.481.259L9 0 6.98 1.464l-2.48-.26-1.014 2.28L1.205 4.5l.259 2.481L0 9l1.464 2.02-.26 2.48 2.28 1.014L4.5 16.795l2.481-.259L9 18l2.02-1.464 2.48.26 1.014-2.28 2.281-1.016-.26-2.481L18 9l-1.464-2.02z"></path>
        <path fill="#FFF" d="M12.216 5.928a.267.267 0 0 0-.378 0l-4.35 4.35-1.324-1.323a.267.267 0 0 0-.377 0l-.758.754a.268.268 0 0 0 0 .378l2.27 2.27a.268.268 0 0 0 .378 0l5.295-5.294a.268.268 0 0 0 0-.378l-.756-.757z"></path>
    </g>
</svg>