<svg height="512pt" viewBox="0 0 512 512" width="512pt" xmlns="http://www.w3.org/2000/svg"><path d="m479 504.511719h-446c-14.089844 0-25.511719-11.421875-25.511719-25.511719v-446c0-14.089844 11.421875-25.511719 25.511719-25.511719h446c14.089844 0 25.511719 11.421875 25.511719 25.511719v446c0 14.089844-11.421875 25.511719-25.511719 25.511719zm0 0" fill="#ffd86e"/><path d="m504.519531 32.996094v446.003906c0 14.09375-11.425781 25.519531-25.519531 25.519531h-26.296875c14.09375 0 25.519531-11.425781 25.519531-25.519531v-446.003906c0-14.082032-11.425781-25.507813-25.519531-25.507813h26.296875c14.09375 0 25.519531 11.425781 25.519531 25.507813zm0 0" fill="#ffb509"/><path d="m504.511719 94.527344h-497.023438v-61.527344c0-14.089844 11.421875-25.511719 25.511719-25.511719h446c14.089844 0 25.515625 11.421875 25.515625 25.511719v61.527344zm0 0" fill="#0396fd"/><path d="m504.519531 32.996094v61.535156h-26.296875v-61.535156c0-14.082032-11.425781-25.507813-25.519531-25.507813h26.296875c14.09375 0 25.519531 11.425781 25.519531 25.507813zm0 0" fill="#0077f0"/><path d="m69.269531 50.796875c0 8.015625-6.496093 14.511719-14.511719 14.511719-8.015624 0-14.515624-6.496094-14.515624-14.511719s6.5-14.515625 14.515624-14.515625c8.015626 0 14.511719 6.5 14.511719 14.515625zm0 0" fill="#ff6b81"/><path d="m125.320312 50.796875c0 8.015625-6.496093 14.511719-14.511718 14.511719s-14.515625-6.496094-14.515625-14.511719 6.5-14.515625 14.515625-14.515625 14.511718 6.5 14.511718 14.515625zm0 0" fill="#ffd86e"/><path d="m181.371094 50.796875c0 8.015625-6.496094 14.511719-14.511719 14.511719s-14.515625-6.496094-14.515625-14.511719 6.5-14.515625 14.515625-14.515625 14.511719 6.5 14.511719 14.515625zm0 0" fill="#80e0dc"/><path d="m69.265625 50.800781c0 8.011719-6.492187 14.503907-14.503906 14.503907-3.878907 0-7.410157-1.519532-10.011719-4.011719 7.851562-.171875 14.171875-6.589844 14.171875-14.492188 0-4.140625-1.730469-7.863281-4.5-10.503906.109375-.011719.230469-.011719.339844-.011719 8.011719 0 14.503906 6.492188 14.503906 14.515625zm0 0" fill="#ff435f"/><path d="m125.316406 50.800781c0 8.011719-6.488281 14.503907-14.511718 14.503907-3.878907 0-7.402344-1.519532-10.011719-4.011719 7.859375-.171875 14.183593-6.589844 14.183593-14.492188 0-4.140625-1.730468-7.863281-4.5-10.503906.109376-.011719.21875-.011719.328126-.011719 8.023437 0 14.511718 6.492188 14.511718 14.515625zm0 0" fill="#ffb509"/><path d="m181.371094 50.800781c0 8.011719-6.5 14.503907-14.511719 14.503907-3.882813 0-7.402344-1.519532-10.015625-4.011719 7.863281-.171875 14.175781-6.589844 14.175781-14.492188 0-4.140625-1.730469-7.863281-4.5-10.503906.109375-.011719.226563-.011719.339844-.011719 8.011719 0 14.511719 6.492188 14.511719 14.515625zm0 0" fill="#00a8b0"/><path d="m447.402344 66.28125h-198.871094c-8.285156 0-15-6.714844-15-15s6.714844-15 15-15h198.871094c8.285156 0 15 6.714844 15 15s-6.714844 15-15 15zm0 0" fill="#c9f0ff"/><path d="m462.398438 51.28125c0 4.140625-1.679688 7.890625-4.390626 10.613281-2.710937 2.707031-6.460937 4.390625-10.601562 4.390625h-24.058594c4.140625 0 7.894532-1.683594 10.605469-4.390625 2.710937-2.722656 4.390625-6.472656 4.390625-10.613281 0-8.285156-6.710938-14.996094-14.996094-14.996094h24.058594c8.28125 0 14.992188 6.710938 14.992188 14.996094zm0 0" fill="#9ae7fd"/><path d="m455.570312 228.53125h-179.8125c-4.417968 0-8-3.578125-8-7.996094v-67.71875c0-4.417968 3.582032-7.996094 8-7.996094h179.8125c4.417969 0 8 3.578126 8 7.996094v67.71875c0 4.417969-3.582031 7.996094-8 7.996094zm0 0" fill="#c9f0ff"/><path d="m463.570312 152.8125v67.71875c0 4.417969-3.582031 8-8.003906 8h-24.105468c4.410156 0 7.992187-3.582031 7.992187-8v-67.71875c0-4.410156-3.582031-7.988281-7.992187-7.988281h24.105468c4.421875-.003907 8.003906 3.578125 8.003906 7.988281zm0 0" fill="#9ae7fd"/><path d="m286.671875 228.042969 53.660156-53.636719c2.445313-2.441406 6.441407-2.320312 8.730469.261719l47.363281 53.375zm0 0" fill="#80e0dc"/><path d="m355.816406 228.042969 42.578125-42.558594c2.441407-2.441406 6.4375-2.320313 8.730469.261719l37.53125 42.296875zm0 0" fill="#80e0dc"/><path d="m455.570312 468.136719h-179.8125c-4.417968 0-8-3.582031-8-7.996094v-116.640625c0-4.417969 3.582032-8 8-8h179.8125c4.417969 0 8 3.582031 8 8v116.640625c0 4.414063-3.582031 7.996094-8 7.996094zm0 0" fill="#ff6b81"/><path d="m463.570312 343.5v116.636719c0 4.421875-3.582031 8-8.003906 8h-20.984375c4.421875 0 8-3.578125 8-8v-116.636719c0-4.421875-3.578125-8.003906-8-8.003906h20.984375c4.421875 0 8.003906 3.582031 8.003906 8.003906zm0 0" fill="#ff435f"/><path d="m388.023438 395.761719-37.722657-21.777344c-4.664062-2.695313-10.492187.671875-10.492187 6.054687v43.558594c0 5.382813 5.828125 8.75 10.492187 6.058594l37.722657-21.78125c4.660156-2.691406 4.660156-9.421875 0-12.113281zm0 0" fill="#e7e7e7"/><path d="m388.019531 407.875-37.714843 21.78125c-4.664063 2.691406-10.492188-.675781-10.492188-6.058594v-5.664062l43.308594-25 4.898437 2.828125c4.664063 2.691406 4.664063 9.421875 0 12.113281zm0 0" fill="#cecece"/><path d="m54.757812 28.796875c-12.132812 0-22 9.867187-22 22 0 12.128906 9.867188 22 22 22 12.128907 0 22-9.871094 22-22 0-12.132813-9.871093-22-22-22zm0 29.023437c-3.875 0-7.027343-3.152343-7.027343-7.023437 0-3.875 3.152343-7.027344 7.027343-7.027344s7.023438 3.152344 7.023438 7.027344c0 3.871094-3.148438 7.023437-7.023438 7.023437zm0 0"/><path d="m110.808594 28.796875c-12.132813 0-22 9.867187-22 22 0 12.128906 9.867187 22 22 22 12.128906 0 21.996094-9.871094 21.996094-22 .003906-12.132813-9.867188-22-21.996094-22zm0 29.023437c-3.875 0-7.027344-3.152343-7.027344-7.023437 0-3.875 3.152344-7.027344 7.027344-7.027344 3.871094 0 7.023437 3.152344 7.023437 7.027344 0 3.871094-3.148437 7.023437-7.023437 7.023437zm0 0"/><path d="m166.859375 28.796875c-12.132813 0-22 9.867187-22 22 0 12.128906 9.867187 22 22 22 12.128906 0 22-9.871094 22-22 0-12.132813-9.871094-22-22-22zm0 29.023437c-3.875 0-7.027344-3.152343-7.027344-7.023437 0-3.875 3.152344-7.027344 7.027344-7.027344 3.871094 0 7.023437 3.152344 7.023437 7.027344 0 3.871094-3.148437 7.023437-7.023437 7.023437zm0 0"/><path d="m181.371094 137.332031h-126.613282c-4.136718 0-7.488281 3.351563-7.488281 7.488281 0 4.132813 3.351563 7.484376 7.488281 7.484376h126.613282c4.136718 0 7.488281-3.351563 7.488281-7.484376 0-4.136718-3.351563-7.488281-7.488281-7.488281zm0 0"/><path d="m181.371094 172.519531h-126.613282c-4.136718 0-7.488281 3.351563-7.488281 7.484375 0 4.136719 3.351563 7.488282 7.488281 7.488282h126.613282c4.136718 0 7.488281-3.351563 7.488281-7.488282 0-4.132812-3.351563-7.484375-7.488281-7.484375zm0 0"/><path d="m181.371094 207.703125h-126.613282c-4.136718 0-7.488281 3.351563-7.488281 7.488281 0 4.132813 3.351563 7.484375 7.488281 7.484375h126.613282c4.136718 0 7.488281-3.351562 7.488281-7.484375 0-4.136718-3.351563-7.488281-7.488281-7.488281zm0 0"/><path d="m181.371094 242.890625h-126.613282c-4.136718 0-7.488281 3.351563-7.488281 7.488281 0 4.132813 3.351563 7.484375 7.488281 7.484375h126.613282c4.136718 0 7.488281-3.351562 7.488281-7.484375 0-4.136718-3.351563-7.488281-7.488281-7.488281zm0 0"/><path d="m181.371094 278.078125h-126.613282c-4.136718 0-7.488281 3.351563-7.488281 7.484375 0 4.136719 3.351563 7.488281 7.488281 7.488281h126.613282c4.136718 0 7.488281-3.351562 7.488281-7.488281 0-4.132812-3.351563-7.484375-7.488281-7.484375zm0 0"/><path d="m181.371094 313.265625h-126.613282c-4.136718 0-7.488281 3.351563-7.488281 7.484375s3.351563 7.488281 7.488281 7.488281h126.613282c4.136718 0 7.488281-3.355469 7.488281-7.488281s-3.351563-7.484375-7.488281-7.484375zm0 0"/><path d="m181.371094 348.449219h-126.613282c-4.136718 0-7.488281 3.351562-7.488281 7.488281 0 4.132812 3.351563 7.484375 7.488281 7.484375h126.613282c4.136718 0 7.488281-3.351563 7.488281-7.484375 0-4.136719-3.351563-7.488281-7.488281-7.488281zm0 0"/><path d="m181.371094 383.636719h-126.613282c-4.136718 0-7.488281 3.351562-7.488281 7.484375 0 4.136718 3.351563 7.488281 7.488281 7.488281h126.613282c4.136718 0 7.488281-3.351563 7.488281-7.488281 0-4.132813-3.351563-7.484375-7.488281-7.484375zm0 0"/><path d="m181.371094 418.824219h-126.613282c-4.136718 0-7.488281 3.351562-7.488281 7.484375 0 4.136718 3.351563 7.488281 7.488281 7.488281h126.613282c4.136718 0 7.488281-3.351563 7.488281-7.488281 0-4.132813-3.351563-7.484375-7.488281-7.484375zm0 0"/><path d="m181.371094 454.007812h-126.613282c-4.136718 0-7.488281 3.351563-7.488281 7.488282 0 4.132812 3.351563 7.484375 7.488281 7.484375h126.613282c4.136718 0 7.488281-3.351563 7.488281-7.484375 0-4.136719-3.351563-7.488282-7.488281-7.488282zm0 0"/><path d="m217.4375 132.628906v341.058594c0 4.132812 3.351562 7.484375 7.488281 7.484375 4.132813 0 7.484375-3.351563 7.484375-7.484375v-341.058594c0-4.136718-3.351562-7.488281-7.484375-7.488281-4.136719 0-7.488281 3.351563-7.488281 7.488281zm0 0"/><path d="m479 0h-446c-18.195312 0-33 14.804688-33 33v446c0 18.195312 14.804688 33 33 33h223c4.136719 0 7.488281-3.351562 7.488281-7.488281 0-4.132813-3.351562-7.484375-7.488281-7.484375h-223c-9.941406 0-18.027344-8.085938-18.027344-18.027344v-376.984375h482.054688v376.984375c0 9.941406-8.085938 18.027344-18.027344 18.027344h-176.800781c-4.136719 0-7.484375 3.351562-7.484375 7.484375 0 4.136719 3.351562 7.488281 7.484375 7.488281h176.800781c18.195312 0 33-14.804688 33-33v-446c0-18.195312-14.804688-33-33-33zm18.027344 87.042969h-482.054688v-54.042969c0-9.941406 8.089844-18.027344 18.027344-18.027344h446c9.941406 0 18.027344 8.085938 18.027344 18.027344zm0 0"/><path d="m447.402344 28.796875h-43.664063c-4.132812 0-7.484375 3.351563-7.484375 7.484375 0 4.136719 3.351563 7.488281 7.484375 7.488281h43.664063c4.144531 0 7.511718 3.367188 7.511718 7.511719s-3.367187 7.515625-7.511718 7.515625h-198.871094c-4.144531 0-7.515625-3.371094-7.515625-7.515625s3.371094-7.511719 7.515625-7.511719h108.625c4.136719 0 7.484375-3.351562 7.484375-7.488281 0-4.132812-3.351563-7.484375-7.484375-7.484375h-108.625c-12.398438 0-22.488281 10.085937-22.488281 22.484375 0 12.402344 10.089843 22.488281 22.488281 22.488281h198.871094c12.398437 0 22.484375-10.089843 22.484375-22.488281.003906-12.398438-10.085938-22.484375-22.484375-22.484375zm0 0"/><path d="m471.054688 152.816406c0-8.539062-6.945313-15.484375-15.484376-15.484375h-179.8125c-8.539062 0-15.484374 6.945313-15.484374 15.484375v67.71875c0 8.539063 6.945312 15.484375 15.484374 15.484375h179.8125c8.539063 0 15.484376-6.949219 15.484376-15.484375zm-166.789063 68.230469 40.246094-40.230469 31.410156 35.402344c2.746094 3.09375 7.476563 3.375 10.570313.632812 2.902343-2.578124 3.328124-6.90625 1.101562-9.984374l14.976562-14.972657 25.867188 29.152344zm151.816406-.511719c0 .28125-.230469.511719-.511719.511719h-7.113281l-35.734375-40.269531c-2.453125-2.765625-5.984375-4.417969-9.683594-4.527344-3.699218-.117188-7.320312 1.324219-9.9375 3.941406l-15.4375 15.429688-23-25.921875c-2.457031-2.765625-5.984374-4.417969-9.6875-4.527344-3.667968-.117187-7.320312 1.324219-9.9375 3.941406l-51.957031 51.933594h-7.324219c-.285156 0-.511718-.230469-.511718-.511719v-67.71875c0-.28125.226562-.511718.511718-.511718h179.8125c.28125 0 .511719.230468.511719.511718zm0 0"/><path d="m267.757812 278.441406h35.894532c4.136718 0 7.484375-3.351562 7.484375-7.484375 0-4.136719-3.351563-7.488281-7.484375-7.488281h-35.894532c-4.132812 0-7.484374 3.351562-7.484374 7.488281 0 4.132813 3.351562 7.484375 7.484374 7.484375zm0 0"/><path d="m401.296875 270.957031c0-4.136719-3.351563-7.488281-7.484375-7.488281h-65.070312c-4.136719 0-7.488282 3.351562-7.488282 7.488281 0 4.132813 3.351563 7.484375 7.488282 7.484375h65.070312c4.132812 0 7.484375-3.351562 7.484375-7.484375zm0 0"/><path d="m463.570312 263.46875h-39.601562c-4.136719 0-7.488281 3.351562-7.488281 7.488281 0 4.132813 3.351562 7.484375 7.488281 7.484375h39.601562c4.132813 0 7.484376-3.351562 7.484376-7.484375 0-4.136719-3.351563-7.488281-7.484376-7.488281zm0 0"/><path d="m267.757812 306.917969h45.480469c4.136719 0 7.484375-3.351563 7.484375-7.488281 0-4.132813-3.351562-7.484376-7.484375-7.484376h-45.480469c-4.132812 0-7.484374 3.351563-7.484374 7.484376 0 4.132812 3.351562 7.488281 7.484374 7.488281zm0 0"/><path d="m342.292969 306.917969h77.0625c4.136719 0 7.484375-3.351563 7.484375-7.488281 0-4.132813-3.351563-7.484376-7.484375-7.484376h-77.0625c-4.136719 0-7.484375 3.351563-7.484375 7.484376-.003906 4.132812 3.347656 7.488281 7.484375 7.488281zm0 0"/><path d="m463.570312 291.941406h-17.6875c-4.136718 0-7.484374 3.351563-7.484374 7.488282 0 4.132812 3.351562 7.484374 7.484374 7.484374h17.6875c4.132813 0 7.484376-3.351562 7.484376-7.484374 0-4.136719-3.351563-7.488282-7.484376-7.488282zm0 0"/><path d="m471.054688 460.140625v-116.640625c0-8.539062-6.945313-15.484375-15.484376-15.484375h-179.8125c-8.539062 0-15.484374 6.945313-15.484374 15.484375v116.640625c0 8.535156 6.945312 15.484375 15.484374 15.484375h179.8125c8.539063 0 15.484376-6.949219 15.484376-15.484375zm-195.808594 0v-116.640625c0-.285156.230468-.511719.511718-.511719h179.8125c.28125 0 .511719.226563.511719.511719v116.640625c0 .28125-.230469.511719-.511719.511719h-179.8125c-.28125 0-.511718-.230469-.511718-.511719zm0 0"/><path d="m391.765625 389.277344-37.71875-21.777344c-4.535156-2.617188-9.949219-2.617188-14.484375 0-4.53125 2.617188-7.242188 7.304688-7.242188 12.539062v43.558594c0 5.234375 2.710938 9.921875 7.242188 12.539063 2.269531 1.308593 4.753906 1.964843 7.242188 1.964843 2.484374 0 4.972656-.652343 7.242187-1.964843l37.71875-21.777344c4.535156-2.617187 7.242187-7.304687 7.242187-12.539063 0-5.238281-2.707031-9.925781-7.242187-12.542968zm-44.46875 33.464844v-41.851563l36.246094 20.929687zm0 0"/></svg>