<?xml version="1.0"?>
<svg xmlns="http://www.w3.org/2000/svg" xmlns:xlink="http://www.w3.org/1999/xlink" xmlns:svgjs="http://svgjs.com/svgjs" version="1.1" width="512" height="512" x="0" y="0" viewBox="0 0 64 64" style="enable-background:new 0 0 512 512" xml:space="preserve" class=""><g><path xmlns="http://www.w3.org/2000/svg" d="m56.915 23.8c1.86-1.26 3.085-3.389 3.085-5.8 0-3.86-3.141-7-7-7v-10h-52v42h14.556c.694 1.19 1.97 2 3.444 2v10.5c0 1.93 1.57 3.5 3.5 3.5.98 0 1.864-.407 2.5-1.058.636.651 1.52 1.058 2.5 1.058 1.93 0 3.5-1.57 3.5-3.5v-9.056c.591.344 1.268.556 2 .556v12.5c0 1.93 1.57 3.5 3.5 3.5.98 0 1.864-.407 2.5-1.058.636.651 1.52 1.058 2.5 1.058 1.93 0 3.5-1.57 3.5-3.5v-12.5c.732 0 1.409-.212 2-.556v9.056c0 1.93 1.57 3.5 3.5 3.5.98 0 1.864-.407 2.5-1.058.636.651 1.52 1.058 2.5 1.058 1.93 0 3.5-1.57 3.5-3.5v-10.5c2.206 0 4-1.794 4-4v-8c0-4.125-2.512-7.674-6.085-9.2zm1.085-5.8c0 2.757-2.243 5-5 5s-5-2.243-5-5 2.243-5 5-5 5 2.243 5 5zm-7-15v6h-48v-6zm-48 38v-30h22 26v.295c-2.887.863-5 3.541-5 6.705 0 2.414 1.229 4.547 3.093 5.805-2.121.905-3.898 2.528-4.978 4.618-.386-.231-.783-.445-1.2-.623 1.86-1.26 3.085-3.389 3.085-5.8 0-3.86-3.141-7-7-7s-7 3.14-7 7c0 2.411 1.225 4.54 3.085 5.8-.417.178-.814.392-1.2.623-1.079-2.089-2.857-3.713-4.978-4.618 1.864-1.258 3.093-3.391 3.093-5.805 0-3.86-3.141-7-7-7s-7 3.14-7 7c0 2.411 1.225 4.54 3.085 5.8-3.573 1.526-6.085 5.075-6.085 9.2v8zm31-19c0-2.757 2.243-5 5-5s5 2.243 5 5-2.243 5-5 5-5-2.243-5-5zm-14-4c0-2.757 2.243-5 5-5s5 2.243 5 5-2.243 5-5 5-5-2.243-5-5zm9 37.5c0 .827-.673 1.5-1.5 1.5s-1.5-.673-1.5-1.5v-16.5h-2v16.5c0 .827-.673 1.5-1.5 1.5s-1.5-.673-1.5-1.5v-23.5h-2v11c-1.103 0-2-.897-2-2v-8c0-4.411 3.589-8 8-8 3.124 0 5.943 1.852 7.241 4.652-1.987 1.828-3.241 4.441-3.241 7.348v1 5zm16-10.5v-9h-2v23.5c0 .827-.673 1.5-1.5 1.5s-1.5-.673-1.5-1.5v-16.5h-2v16.5c0 .827-.673 1.5-1.5 1.5s-1.5-.673-1.5-1.5v-23.5h-2v9c-1.103 0-2-.897-2-2v-5-1c0-4.411 3.589-8 8-8s8 3.589 8 8v1 5c0 1.103-.897 2-2 2zm16-4c0 1.103-.897 2-2 2v-11h-2v23.5c0 .827-.673 1.5-1.5 1.5s-1.5-.673-1.5-1.5v-16.5h-2v16.5c0 .827-.673 1.5-1.5 1.5s-1.5-.673-1.5-1.5v-12.5-5-1c0-2.907-1.254-5.52-3.241-7.348 1.298-2.8 4.117-4.652 7.241-4.652 4.411 0 8 3.589 8 8z" fill="#0088ff" data-original="#000000" style="" class=""/><path xmlns="http://www.w3.org/2000/svg" d="m5 5h2v2h-2z" fill="#0088ff" data-original="#000000" style="" class=""/><path xmlns="http://www.w3.org/2000/svg" d="m9 5h2v2h-2z" fill="#0088ff" data-original="#000000" style="" class=""/><path xmlns="http://www.w3.org/2000/svg" d="m13 5h2v2h-2z" fill="#0088ff" data-original="#000000" style="" class=""/><path xmlns="http://www.w3.org/2000/svg" d="m5 13h2v2h-2z" fill="#0088ff" data-original="#000000" style="" class=""/><path xmlns="http://www.w3.org/2000/svg" d="m9 13h2v2h-2z" fill="#0088ff" data-original="#000000" style="" class=""/><path xmlns="http://www.w3.org/2000/svg" d="m13 13h2v2h-2z" fill="#0088ff" data-original="#000000" style="" class=""/><path xmlns="http://www.w3.org/2000/svg" d="m5 17h10v2h-10z" fill="#0088ff" data-original="#000000" style="" class=""/><path xmlns="http://www.w3.org/2000/svg" d="m5 21h10v2h-10z" fill="#0088ff" data-original="#000000" style="" class=""/><path xmlns="http://www.w3.org/2000/svg" d="m5 25h10v2h-10z" fill="#0088ff" data-original="#000000" style="" class=""/><path xmlns="http://www.w3.org/2000/svg" d="m5 29h8v2h-8z" fill="#0088ff" data-original="#000000" style="" class=""/><path xmlns="http://www.w3.org/2000/svg" d="m5 33h8v2h-8z" fill="#0088ff" data-original="#000000" style="" class=""/><path xmlns="http://www.w3.org/2000/svg" d="m5 37h8v2h-8z" fill="#0088ff" data-original="#000000" style="" class=""/></g></svg>
