<?xml version="1.0" encoding="utf-8"?>
<!-- Generator: Adobe Illustrator 16.0.0, SVG Export Plug-In . SVG Version: 6.00 Build 0)  -->
<!DOCTYPE svg PUBLIC "-//W3C//DTD SVG 1.1//EN" "http://www.w3.org/Graphics/SVG/1.1/DTD/svg11.dtd">
<svg version="1.1" id="Layer_1" xmlns="http://www.w3.org/2000/svg" xmlns:xlink="http://www.w3.org/1999/xlink" x="0px" y="0px"
	 width="290px" height="33px" viewBox="0 0 290 33" enable-background="new 0 0 290 33" xml:space="preserve">
<path fill="#fff" d="M28.914,32.479h4.023L30.949,0.577h-5.254l-5.68,15.431c-1.42,4.022-2.556,7.525-3.361,10.744h-0.142
	c-0.805-3.313-1.894-6.815-3.219-10.744L7.851,0.577H2.597L0.373,32.479h3.928L5.153,18.8C5.438,14.02,5.674,8.671,5.769,4.695
	h0.095C6.763,8.481,8.041,12.6,9.556,17.097l5.159,15.193h3.124l5.633-15.479c1.609-4.401,2.935-8.377,4.023-12.116h0.142
	c-0.047,3.976,0.237,9.324,0.474,13.772L28.914,32.479z"/>
<path fill="#fff" d="M64.224,0.057c-8.52,0-14.815,6.627-14.815,16.755C49.409,26.468,55.325,33,63.75,33
	c8.141,0,14.815-5.822,14.815-16.803C78.565,6.73,72.933,0.057,64.224,0.057z M64.035,3.417c6.863,0,10.176,6.626,10.176,12.969
	c0,7.242-3.692,13.253-10.224,13.253c-6.484,0-10.177-6.105-10.177-12.921C53.811,9.712,57.219,3.417,64.035,3.417z"/>
<path fill="#fff" d="M95.937,32.385c1.373,0.189,3.55,0.378,6.39,0.378c5.207,0,8.804-0.946,11.028-2.981
	c1.609-1.563,2.698-3.645,2.698-6.39c0-4.733-3.55-7.242-6.579-7.999v-0.095c3.36-1.23,5.396-3.93,5.396-7.006
	c0-2.508-0.994-4.401-2.651-5.632c-1.988-1.609-4.639-2.319-8.756-2.319c-2.887,0-5.727,0.283-7.526,0.662V32.385z M100.055,3.796
	c0.663-0.142,1.751-0.284,3.645-0.284c4.165,0,7.005,1.468,7.005,5.206c0,3.077-2.556,5.35-6.911,5.35h-3.739V3.796z
	 M100.055,17.191h3.408c4.496,0,8.236,1.798,8.236,6.152c0,4.639-3.929,6.2-8.189,6.2c-1.467,0-2.65-0.047-3.455-0.188V17.191z"/>
<path fill="#fff" d="M133.613,0.577v31.902h4.118V0.577H133.613z"/>
<path fill="#fff" d="M155.339,30.917c1.704,1.137,5.065,2.035,8.141,2.035c7.526,0,11.171-4.26,11.171-9.183
	c0-4.685-2.745-7.289-8.141-9.371c-4.401-1.704-6.343-3.171-6.343-6.153c0-2.178,1.656-4.78,6.011-4.78
	c2.888,0,5.018,0.946,6.059,1.515l1.137-3.361c-1.42-0.804-3.787-1.562-7.053-1.562c-6.2,0-10.318,3.691-10.318,8.661
	c0,4.497,3.219,7.194,8.426,9.041c4.307,1.657,6.01,3.36,6.01,6.343c0,3.218-2.461,5.442-6.673,5.442
	c-2.841,0-5.538-0.946-7.384-2.082L155.339,30.917z"/>
<path fill="#fff" d="M192.307,0.577v31.902h4.117V0.577H192.307z"/>
<path fill="#fff" d="M215.594,0.577v18.791c0,9.893,4.922,13.632,11.454,13.632c6.911,0,12.069-4.023,12.069-13.821V0.577h-4.165
	v18.885c0,7.053-3.029,10.177-7.763,10.177c-4.26,0-7.431-3.028-7.431-10.177V0.577H215.594z"/>
<path fill="#fff" d="M285.977,32.479H290l-1.988-31.902h-5.254l-5.68,15.431c-1.42,4.022-2.556,7.525-3.36,10.744h-0.143
	c-0.805-3.313-1.894-6.815-3.219-10.744l-5.443-15.431h-5.253l-2.225,31.902h3.929l0.852-13.68
	c0.284-4.78,0.521-10.129,0.615-14.104h0.095c0.899,3.786,2.178,7.904,3.692,12.401l5.158,15.193h3.124l5.633-15.479
	c1.609-4.401,2.936-8.377,4.023-12.116h0.143c-0.049,3.976,0.235,9.324,0.473,13.772L285.977,32.479z"/>
</svg>
